HIERARCHY
ROOT hip
{
	OFFSET 0.000000 0.000000 0.000000 
	CHANNELS 6 Xposition Yposition Zposition Xrotation Zrotation Yrotation
	JOINT abdomen
	{
		OFFSET 0.000000 3.402643 0.000000 
		CHANNELS 3 Xrotation Zrotation Yrotation
		JOINT chest
		{
			OFFSET 0.000000 8.438565 -0.680529 
			CHANNELS 3 Xrotation Zrotation Yrotation
			JOINT neck
			{
				OFFSET 0.000000 10.207942 -0.272212 
				CHANNELS 3 Xrotation Zrotation Yrotation
				JOINT head
				{
					OFFSET 0.000000 3.130431 0.000000 
					CHANNELS 3 Xrotation Zrotation Yrotation
					End Site
					{
						OFFSET 0.000000 3.130435 0.000000 
					}
				}
			}
			JOINT lCollar
			{
				OFFSET 3.470700 6.669187 -0.816635 
				CHANNELS 3 Yrotation Zrotation Xrotation
				JOINT lShldr
				{
					OFFSET 3.198488 0.000000 0.000000 
					CHANNELS 3 Zrotation Yrotation Xrotation
					JOINT lForeArm
					{
						OFFSET 10.139888 0.000000 0.000000 
						CHANNELS 3 Yrotation Zrotation Xrotation
						JOINT lHand
						{
							OFFSET 8.370511 0.000000 0.000000 
							CHANNELS 3 Zrotation Yrotation Xrotation
							End Site
							{
								OFFSET 4.083176 0.000000 0.000000 
							}
						}
					}
				}
			}
			JOINT rCollar
			{
				OFFSET -3.470700 6.669187 -0.816635 
				CHANNELS 3 Yrotation Zrotation Xrotation
				JOINT rShldr
				{
					OFFSET -3.198488 0.000000 0.000000 
					CHANNELS 3 Zrotation Yrotation Xrotation
					JOINT rForeArm
					{
						OFFSET -10.139888 0.000000 0.000000 
						CHANNELS 3 Yrotation Zrotation Xrotation
						JOINT rHand
						{
							OFFSET -8.370511 0.000000 0.000000 
							CHANNELS 3 Zrotation Yrotation Xrotation
							End Site
							{
								OFFSET -4.083176 0.000000 0.000000 
							}
						}
					}
				}
			}
		}
	}
	JOINT lThigh
	{
		OFFSET 5.308129 -1.633274 1.361059 
		CHANNELS 3 Xrotation Zrotation Yrotation
		JOINT lShin
		{
			OFFSET -2.041588 -20.007561 0.000000 
			CHANNELS 3 Xrotation Zrotation Yrotation
			JOINT lFoot
			{
				OFFSET 0.000000 -19.190928 -1.224953 
				CHANNELS 3 Xrotation Yrotation Zrotation
				End Site
				{
					OFFSET 0.000000 -2.449906 4.627600 
				}
			}
		}
	}
	JOINT rThigh
	{
		OFFSET -5.308129 -1.633274 1.361059 
		CHANNELS 3 Xrotation Zrotation Yrotation
		JOINT rShin
		{
			OFFSET 2.041588 -20.007561 0.000000 
			CHANNELS 3 Xrotation Zrotation Yrotation
			JOINT rFoot
			{
				OFFSET 0.000000 -19.190928 -1.224953 
				CHANNELS 3 Xrotation Yrotation Zrotation
				End Site
				{
					OFFSET 0.000000 -2.449906 4.627600 
				}
			}
		}
	}
}
MOTION
Frames: 10
Frame Time: 0.016667
-0.866962 72.591774 -3.734344 -7.601186 -6.317284 -5.630388 31.063305 3.657585 1.803036 -2.802125 3.798814 0.020482 -26.836922 -1.931426 0.746906 5.104814 -5.185449 0.352772 23.287910 30.000000 2.482623 32.326782 -27.897139 -45.000000 -25.205118 5.000000 -45.000000 -28.280582 27.294022 9.757254 -19.743662 -30.000000 2.442391 -49.044472 21.937166 -45.000000 20.330072 -5.000000 -45.000000 15.582543 -30.000000 22.697355 13.664095 11.372345 2.195156 1.627195 -7.436737 -0.510954 11.030980 -2.132969 -7.993020 10.800122 0.547157 3.354167 3.599436 4.807756 0.483953 -37.902710 -3.914532 7.483277 
-0.938067 72.601250 -3.771020 -7.750381 -6.254361 -5.128941 31.192129 3.696821 1.663775 -2.748759 3.769528 -0.087418 -26.905863 -1.949271 0.759477 5.071955 -5.185483 0.283809 23.209785 30.000000 2.482622 32.210995 -27.885754 -45.000000 -25.186827 5.000000 -45.000000 -28.190264 27.039717 9.622705 -19.951263 -30.000000 2.418385 -49.386295 21.922150 -45.000000 20.485897 -5.000000 -45.000000 15.225724 -30.000000 23.121933 13.904292 11.464267 2.736496 1.912436 -7.479329 -0.549675 10.246956 -1.841097 -8.480846 10.690502 0.654837 2.918424 4.168040 4.838409 0.559012 -37.808002 -3.692916 7.260316 
-1.003780 72.606934 -3.799609 -7.912148 -6.142188 -4.626437 31.307367 3.699035 1.465882 -2.695313 3.730469 -0.195310 -26.925394 -1.949271 0.759477 5.039133 -5.175745 0.214849 23.107149 30.000000 2.471979 32.043549 -27.886694 -45.000000 -25.141800 5.000000 -45.000000 -28.091063 26.768488 9.502103 -20.098026 -30.000000 2.402640 -49.650654 21.927851 -45.000000 20.634657 -5.000000 -44.929226 14.943681 -30.000000 23.457254 14.189071 11.533387 3.326106 2.174118 -7.560125 -0.606209 10.109533 -1.649967 -9.028882 10.567188 0.732312 2.171203 4.860715 4.791337 0.603718 -37.903355 -3.235006 7.195051 
-1.061406 72.606934 -3.816072 -8.081689 -5.922384 -4.104542 31.369843 3.625809 1.205208 -2.641719 3.662106 -0.312341 -26.895714 -1.920307 0.755095 5.018742 -5.146473 0.117591 22.942631 30.000000 2.485803 31.791716 -27.891092 -45.000000 -25.062834 5.000000 -45.000000 -27.976610 26.454624 9.415751 -20.142868 -30.000000 2.397093 -49.784634 21.962490 -45.000000 20.772156 -5.000000 -44.671150 14.822217 -30.000000 23.613060 14.546831 11.560045 4.001016 2.379362 -7.651669 -0.647216 11.003802 -1.852473 -9.649281 10.456324 0.742363 0.931254 5.614200 4.626408 0.590395 -38.179447 -2.361243 7.356871 
-1.119027 72.606926 -3.832527 -8.246185 -5.701742 -3.592410 31.432709 3.557121 0.935161 -2.587965 3.603502 -0.420227 -26.875608 -1.902461 0.742523 4.988482 -5.126952 0.019453 22.787813 30.000000 2.499652 31.550283 -27.895008 -45.000000 -24.977831 5.000000 -45.000000 -27.845987 26.144205 9.339401 -20.180265 -30.000000 2.398668 -49.922848 21.989023 -45.000000 20.902308 -5.000000 -44.420162 14.689119 -30.000000 23.768932 14.907931 11.579576 4.674466 2.622565 -7.737195 -0.731645 11.889579 -1.991201 -10.246303 10.324964 0.741570 -0.311895 6.405705 4.471715 0.607591 -38.479828 -1.449355 7.556783 
-1.165633 72.601242 -3.844212 -8.415724 -5.451539 -3.002586 31.487814 3.504021 0.660283 -2.546189 3.535116 -0.615316 -26.895588 -1.910652 0.753634 4.969466 -5.097623 -0.206002 22.713861 30.000000 2.511008 31.361914 -27.945881 -45.000000 -24.932289 5.000000 -45.000000 -27.729425 25.843819 9.196433 -20.210848 -30.000000 2.381871 -50.161785 21.960506 -45.000000 20.844227 -5.000000 -44.323452 14.449307 -30.000000 24.278000 15.309337 11.668220 5.084591 2.721076 -7.837668 -0.742458 13.366937 -2.730510 -10.266674 10.243627 0.712720 -1.042751 7.058212 4.236219 0.618580 -38.716728 -0.999430 7.517714 
-1.212233 72.595551 -3.855896 -8.581348 -5.190771 -2.403082 31.533897 3.441051 0.381409 -2.494959 3.466712 -0.810995 -26.915245 -1.920307 0.755095 4.939660 -5.077988 -0.421731 22.639885 30.000000 2.516039 31.179937 -27.992516 -45.000000 -24.886789 5.000000 -45.000000 -27.618271 25.543358 9.026352 -20.234005 -30.000000 2.378338 -50.398834 21.927916 -45.000000 20.785721 -5.000000 -44.226448 14.212778 -30.000000 24.774229 15.687917 11.735636 5.481037 2.847940 -7.885917 -0.746518 14.876759 -3.512869 -10.286005 10.172486 0.644306 -1.768850 7.707518 4.036719 0.628656 -38.977623 -0.495217 7.503088 
-1.243744 72.596687 -3.857119 -8.777231 -4.802396 -1.774452 31.611774 3.288414 0.107966 -2.466811 3.378723 -1.104207 -26.916679 -1.975307 0.783157 4.838647 -5.048545 -0.608276 22.519318 30.000000 2.525398 30.996620 -28.009163 -45.000000 -24.821997 5.000000 -45.000000 -27.556801 25.207197 8.788148 -20.163984 -30.000000 2.379928 -50.684971 21.911512 -45.000000 20.801130 -5.000000 -43.981586 13.948358 -30.000000 25.311775 16.041155 11.668063 5.738131 3.033373 -7.837163 -0.746417 15.821114 -3.942045 -10.274203 10.214168 0.448717 -2.131112 8.190636 3.855109 0.615119 -39.136234 -0.372532 7.406416 
-1.265190 72.602379 -3.851358 -8.988242 -4.315590 -1.116738 31.691996 3.059737 -0.166901 -2.460672 3.271124 -1.465688 -26.898903 -2.049616 0.814138 4.686173 -5.028851 -0.764779 22.370583 30.000000 2.527405 30.806889 -28.011612 -45.000000 -24.736906 5.000000 -45.000000 -27.515556 24.853163 8.483274 -20.064806 -30.000000 2.365757 -51.002190 21.926077 -45.000000 20.880026 -5.000000 -43.621426 13.654851 -30.000000 25.870937 16.355127 11.512708 5.894889 3.278674 -7.684400 -0.799972 16.407824 -4.161899 -10.283998 10.333364 0.126893 -2.280463 8.544600 3.708254 0.671110 -39.239491 -0.536670 7.233542 
-1.283120 72.606949 -3.842234 -9.189269 -3.837778 -0.441082 31.753883 2.860414 -0.439653 -2.453037 3.163486 -1.827738 -26.881624 -2.152888 0.849496 4.491961 -5.009161 -0.892099 22.225550 30.000000 2.541123 30.641775 -28.020863 -45.000000 -24.653526 5.000000 -45.000000 -27.457653 24.461807 8.163510 -19.950775 -30.000000 2.346937 -51.277809 21.934732 -45.000000 20.978067 -5.000000 -43.279736 13.363229 -30.000000 26.462524 16.612940 11.324851 5.993388 3.540864 -7.469413 -0.795721 16.920326 -4.214697 -10.300540 10.491025 -0.185450 -2.278452 8.855711 3.571151 0.675312 -39.395294 -0.812401 7.026822 
